<?xml version="1.0" standalone="no"?>
<!DOCTYPE svg PUBLIC "-//W3C//DTD SVG 20010904//EN"
 "http://www.w3.org/TR/2001/REC-SVG-20010904/DTD/svg10.dtd">
<svg version="1.0" xmlns="http://www.w3.org/2000/svg"
 width="500.000000pt" height="500.000000pt" viewBox="0 0 500.000000 500.000000"
 preserveAspectRatio="xMidYMid meet">

<g transform="translate(0.000000,500.000000) scale(0.100000,-0.100000)"
fill="#000000" stroke="none">
<path d="M1970 2605 l0 -225 30 0 30 0 0 225 0 225 -30 0 -30 0 0 -225z"/>
<path d="M2350 2605 l0 -225 25 0 25 0 0 110 c0 130 12 162 65 180 27 9 43 9
70 0 53 -18 65 -50 65 -180 l0 -110 25 0 25 0 0 116 c0 172 -29 218 -136 218
-40 0 -61 -6 -84 -22 l-30 -23 0 81 c0 79 0 80 -25 80 l-25 0 0 -225z"/>
<path d="M2933 2795 c-69 -30 -92 -121 -43 -169 11 -12 55 -33 97 -47 94 -31
123 -61 104 -107 -14 -33 -47 -52 -93 -52 -22 0 -40 10 -64 35 -54 58 -100 41
-52 -20 81 -103 282 -47 264 74 -8 50 -40 77 -127 106 -109 37 -137 80 -83
130 38 35 84 33 127 -5 19 -16 44 -30 56 -30 25 0 25 3 6 39 -28 54 -122 77
-192 46z"/>
<path d="M750 2590 l0 -210 25 0 25 0 0 100 0 100 115 0 115 0 0 -100 0 -100
25 0 25 0 0 210 0 210 -25 0 c-25 0 -25 -1 -25 -90 l0 -90 -115 0 -115 0 0 90
c0 89 0 90 -25 90 l-25 0 0 -210z"/>
<path d="M2140 2755 c0 -38 -3 -45 -20 -45 -13 0 -20 -7 -20 -20 0 -13 7 -20
19 -20 18 0 20 -10 23 -125 4 -145 8 -152 86 -162 48 -5 52 -4 52 16 0 16 -6
21 -26 21 -59 0 -64 10 -64 135 l0 115 45 0 c38 0 45 3 45 20 0 17 -7 20 -45
20 l-45 0 0 45 c0 41 -2 45 -25 45 -23 0 -25 -4 -25 -45z"/>
<path d="M1266 2710 c-65 -20 -106 -83 -106 -161 0 -108 74 -177 179 -167 55
5 115 43 124 78 4 17 0 20 -23 20 -19 0 -31 -6 -35 -18 -7 -24 -46 -42 -91
-42 -28 0 -44 8 -70 34 -19 19 -34 43 -34 55 0 20 5 21 135 21 l135 0 0 30 c0
42 -22 90 -56 122 -33 30 -109 44 -158 28z m99 -44 c30 -13 65 -58 65 -86 0
-6 -40 -10 -110 -10 -99 0 -110 2 -110 18 0 27 29 63 64 78 40 17 49 17 91 0z"/>
<path d="M1646 2710 c-167 -52 -126 -330 49 -330 41 0 104 26 112 47 9 24 23
14 23 -17 0 -23 4 -30 20 -30 19 0 20 7 20 165 0 158 -1 165 -20 165 -13 0
-20 -7 -20 -18 0 -31 -12 -33 -39 -8 -30 28 -99 40 -145 26z m110 -46 c13 -3
33 -22 45 -41 30 -48 23 -133 -13 -169 -37 -38 -98 -43 -142 -13 -42 29 -56
56 -56 114 0 32 7 51 26 74 25 31 77 53 102 45 8 -2 25 -7 38 -10z"/>
<path d="M3695 2713 c-11 -3 -30 -14 -42 -26 l-23 -20 0 21 c0 17 -6 22 -25
22 l-25 0 0 -165 0 -165 25 0 25 0 0 105 c0 134 13 169 68 186 33 9 45 9 75
-6 47 -22 57 -54 57 -181 l0 -104 26 0 26 0 -4 123 c-5 168 -24 202 -120 211
-24 3 -52 2 -63 -1z"/>
<path d="M4067 2712 c-15 -4 -42 -19 -61 -34 -26 -21 -35 -38 -44 -80 -25
-127 38 -218 153 -218 25 0 59 7 75 15 28 15 70 60 70 76 0 20 -44 7 -72 -21
-39 -40 -106 -43 -143 -6 -44 44 -51 128 -16 193 6 12 29 28 51 34 46 14 90 0
119 -37 12 -15 29 -24 46 -24 l27 0 -19 31 c-10 18 -29 40 -43 50 -28 21 -100
31 -143 21z"/>
<path d="M3200 2706 c0 -2 14 -37 31 -77 17 -41 46 -113 65 -161 l35 -86 -24
-59 c-41 -98 -42 -103 -14 -103 20 0 28 8 40 43 9 23 50 125 92 227 96 231 93
220 64 220 -25 0 -40 -30 -99 -197 -13 -35 -26 -63 -29 -63 -6 0 -62 135 -92
223 -11 31 -18 37 -41 37 -15 0 -28 -2 -28 -4z"/>
<path d="M2730 2435 c-18 -22 -1 -50 31 -50 20 0 24 5 24 30 0 23 -5 31 -21
33 -11 2 -27 -4 -34 -13z"/>
</g>
</svg>
